<svg width="512" height="512" viewBox="0 0 512 512" fill="none" xmlns="http://www.w3.org/2000/svg">
<path fill-rule="evenodd" clip-rule="evenodd" d="M313.139 504.448C405.846 504.448 481 429.294 481 336.587C481 243.88 405.846 168.726 313.139 168.726C220.432 168.726 145.278 243.88 145.278 336.587C145.278 382.621 163.808 424.327 193.816 454.652V504.448H313.139Z" fill="#2E5D59"/>
<path fill-rule="evenodd" clip-rule="evenodd" d="M313.139 348.722C405.846 348.722 481 273.568 481 180.861C481 88.1539 405.846 13 313.139 13V348.722Z" fill="#37736E"/>
<path fill-rule="evenodd" clip-rule="evenodd" d="M313.139 348.722C405.846 348.722 481 273.568 481 180.861C481 88.1539 405.846 13 313.139 13H193.816V62.7959C163.808 93.1217 145.278 134.827 145.278 180.861C145.278 226.895 163.808 268.6 193.816 298.926V348.722H313.139Z" fill="#37736E"/>
<path fill-rule="evenodd" clip-rule="evenodd" d="M348.108 105.924L122.924 331.108C67.8323 303.577 30 246.637 30 180.861C30 88.1539 105.154 13 197.861 13C263.637 13 320.577 50.8323 348.108 105.924Z" fill="#6CD1BE"/>
<path fill-rule="evenodd" clip-rule="evenodd" d="M42.1343 412.112L267.318 186.928C322.41 214.459 360.242 271.399 360.242 337.175C360.242 429.882 285.088 505.036 192.381 505.036C126.605 505.036 69.6651 467.204 42.1343 412.112Z" fill="#58B5A6"/>
</svg>
