<?xml version="1.0" encoding="utf-8"?>
<!-- Generator: Adobe Illustrator 22.1.0, SVG Export Plug-In . SVG Version: 6.00 Build 0)  -->
<svg version="1.1" id="Layer_1" xmlns="http://www.w3.org/2000/svg" xmlns:xlink="http://www.w3.org/1999/xlink" x="0px" y="0px"
	 viewBox="0 0 653 648" style="enable-background:new 0 0 653 648;" xml:space="preserve">
<style type="text/css">
	.st0{fill:#EC0000;}
	.st1{fill:#74797D;}
</style>
<g>
	<g>
		<g>
			<path class="st0" d="M326.5,641C151.7,641,9.6,498.8,9.6,324c0-83.2,31.9-161.7,89.9-221.2c31.8-32.8,69.5-57.7,111.8-74.3
				C247.9,14.3,286.6,7,326.5,7c39.9,0,78.6,7.3,115.2,21.6c42.3,16.6,79.9,41.6,111.8,74.2c58,59.6,90,138.2,90,221.2
				C643.5,498.8,501.3,641,326.5,641z M326.5,74.1c-31.4,0-62,5.7-90.8,17c-33.4,13-63.1,32.7-88.2,58.6
				C101.8,196.6,76.6,258.5,76.6,324c0,137.8,112.1,249.9,249.9,249.9c137.8,0,249.9-112.1,249.9-249.9
				c0-65.5-25.2-127.4-70.9-174.4c-25.1-25.7-54.8-45.5-88.2-58.6C388.5,79.8,358,74.1,326.5,74.1z"/>
		</g>
		<path class="st1" d="M253.5,266.8c1-38.7,32.5-70.2,71.2-71.1c41.1-1,74.8,32.1,74.8,73c0,4.3-0.4,8.5-1.1,12.5
			c-3.6,20.7-15.9,38.5-33.1,49.3c-7.1,4.5-10.7,12.9-8.9,21l21.7,102.9c1.3,6.2-3.4,12.1-9.8,12.1h-83.6c-6.4,0-11.1-5.8-9.8-12.1
			l21.7-102.9c1.7-8.2-1.8-16.6-8.9-21.1c-17.2-10.8-29.5-28.5-33.1-49.3C253.8,276.6,253.4,271.8,253.5,266.8L253.5,266.8z"/>
	</g>
</g>
</svg>
